<svg xmlns="http://www.w3.org/2000/svg" version="1.1" viewBox="16 16 70 70" fill="#CACBCD">
 <g>
  <path d="m62.5 39.199h-0.30078c-0.69922-0.19922-1.1992-0.89844-1-1.6016 0.39844-2.1016 4.6992-20.102 12.398-22.602 2.3008-0.69922 4.6992-0.10156 6.8984 1.8984 3.1992 2.8984 4.6992 5.8008 4.1992 9-0.69531 6.1055-8.3945 9.9062-8.5938 10.105-0.60156 0.39844-1.3984 0.10156-1.8008-0.60156-0.39844-0.60156-0.10156-1.3984 0.60156-1.8008 0.10156 0 6.6016-3.3984 7.3008-8.1016 0.30078-2.1016-0.89844-4.3984-3.3008-6.5-1.5-1.3008-3-1.8008-4.3008-1.3008-5.3984 1.8008-9.5 15.5-10.699 20.602-0.30078 0.50391-0.80078 0.90234-1.4023 0.90234z"/>
  <path d="m75.5 26.102c-0.10156-0.60156-0.5-1.1992-1.1992-1.1992l-22.602-2.3008c-0.39844 0-0.80078 0.10156-1.1016 0.39844l-34.996 35.102c-0.5 0.5-0.5 1.3008 0 1.8984l24.898 24.898c0.30078 0.30078 0.60156 0.39844 1 0.39844s0.69922-0.19922 1-0.39844l35.199-35.199c0.30078-0.30078 0.39844-0.69922 0.39844-1.1016zm-23.102 38c-1.6992 1.6992-3.8984 2.6016-6.3008 2.6016-2 0-3.8008-0.60156-5.3008-1.6992l-1.7969 1.7969c-0.30078 0.30078-0.60156 0.39844-1 0.39844s-0.69922-0.10156-1-0.39844c-0.5-0.5-0.5-1.3008 0-1.8984l1.6992-1.6992-1.5-1.6016-1.6992 1.6992c-0.30078 0.30078-0.60156 0.39844-1 0.39844s-0.69922-0.10156-1-0.39844c-0.5-0.5-0.5-1.3008 0-1.8984l1.8008-1.8008c-1.1992-1.5-1.6992-3.3008-1.6992-5.3008 0-2.3984 0.89844-4.6992 2.6016-6.3008 1.6992-1.6992 3.8984-2.6016 6.3008-2.6016 0.5 0 1.1992 0.10156 1.6992 0.19922 0.69922 0.19922 1.1992 0.80078 1.1016 1.6016-0.19922 0.69922-0.80078 1.1992-1.6016 1.1016-0.39844-0.10156-0.80078-0.10156-1.1992-0.10156-1.6992 0-3.1992 0.60156-4.3984 1.8008s-1.8008 2.8008-1.8008 4.3984c0 1.1992 0.39844 2.3008 1 3.3008l4.6016-4.6016c0.5-0.5 1.3008-0.5 1.8984 0 0.60156 0.5 0.5 1.3008 0 1.8984l-4.6992 4.6992 1.6016 1.6016 4.6992-4.6992c0.5-0.5 1.3008-0.5 1.8984 0 0.5 0.5 0.5 1.3008 0 1.8984l-4.6016 4.6016c1 0.60156 2.1016 1 3.3008 1 1.6992 0 3.1992-0.60156 4.3984-1.8008 1.3984-1.3984 2.1016-3.6016 1.6992-5.5-0.19922-0.69922 0.39844-1.3984 1.1016-1.6016 0.69922-0.19922 1.3984 0.39844 1.6016 1.1016 0.59375 2.8047-0.30469 5.7031-2.4062 7.8047zm13-22.301c-1 1-2.1992 1.3984-3.5 1.3984-1.3008 0-2.5-0.39844-3.3984-1.3984-0.89844-0.89844-1.3984-2.1016-1.3984-3.5 0-1.3008 0.5-2.5 1.3984-3.5 1.8984-1.8984 5-1.8984 6.8984 0 2 2.0977 2 5.0977 0 7z"/>
 </g>
</svg>