<svg xmlns="http://www.w3.org/2000/svg" viewBox="0 0 256 256" x="0px" y="0px" fill="#CACBCD"><g><path d="M128.63,162.48A34.48,34.48,0,0,0,163.11,128c0-3.9-4.49-5.68-8.31-4.91a20.29,20.29,0,0,1-4.15.42,20.82,20.82,0,0,1-19.93-26.78,2.4,2.4,0,0,0-2.09-3.22,34.49,34.49,0,1,0,0,69Z"/><path d="M237.44,138a19.09,19.09,0,0,0,.06-20C224.38,96.33,188,47.1,128.63,47.1S32.88,96.33,19.75,118a19.12,19.12,0,0,0,.06,20c13.26,21.63,49.92,70.91,108.82,70.91S224.18,159.62,237.44,138ZM128.63,182.48A54.49,54.49,0,1,0,74.14,128,54.48,54.48,0,0,0,128.63,182.48Z" style="" fill-rule="evenodd"/><rect width="256" height="256" style="" fill="none"/></g></svg>