<svg viewBox="0 0 66.2 75.1" version="1.1" y="0" x="0" xml:space="preserve" xmlns:xlink="http://www.w3.org/1999/xlink" xmlns="http://www.w3.org/2000/svg"><path opacity="1" fill="#CACBCD" d="m64.6 24.9-.1-.9C63.7 16.8 63 10.6 59 8.4c-1.8-.9-3.7-1.7-5.7-2.3-3.2-1-6.4-2.3-9.5-3.7-.2-.1-.9-.6-1.6-1.1-.9-.6-1.2-.7-4.7-.4-3.8.1-7.6.1-11.5-.2h-.3c-2.6-.2-3.6-.3-4.3.2-.5.3-1.5 1-1.7 1.1-.4.2-4.9 2.3-8.8 3.7l-.8.3c-3.9 1.3-7.2 2.5-7.8 8.8-.5 6.3-1.1 21-1.2 21.3 0 .3.1.5.4.6.3.1 6.8 2.9 10.4 2.8.2 0 .3-.1.4-.2.2-.1.5-6.1.6-7.2v-.7c.2.5.3 1 .4 1.6.9 6 1.2 12.1.9 18.2-.4 5.8-1.1 16.7-1.3 20.5-.1 1.3.7 2.5 2 2.9 1.8.5 5.6 1.1 13.1 1.1h2.8c12.2-.2 17-.4 19.3-1.7 1.1-.6 1.8-1.9 1.7-3.2l-.1-1.2c-.5-4.7-1.4-14.5-1.7-18.2-.4-4.8 1.2-16 1.9-19.4.2-1.1.5-2.3.8-3.4.2.4.4.9.5 1.4.4 1.9.6 11 .6 11 0 .3.3.6.6.6 3.6-.2 7.1-1.2 10.3-2.8.2-.1.3-.3.3-.6.1-.1.4-5.8-.4-13.3M25.6 2h.3c3.9.3 7.8.3 11.7.1C39 2 39.8 2 40.4 2c-1.9 2.8-5 4.4-8.3 4.3-4.1.1-7.6-3-9.1-4.5.6 0 1.4.1 2.6.2m-4 .2c1.2 1.3 5.2 5.3 10.3 5.3h.2c3.8.1 7.5-1.9 9.5-5.2.4.4.8.7 1.1.9-.7 1.4-3.4 5.4-10.9 5.5-7.6.1-10.3-4.5-11-5.9.2-.2.6-.4.8-.6M11.6 32c-.1 2.2 0 3.3-.3 6.2-2.9-.2-7.5-2-8.9-2.5.2-3.6.7-15 1.2-20.8.4-5.5 3.2-6.5 6.9-7.8l.8-.3c1.5-.5 3.1-1.2 4.5-1.8-2.4 2.2-5.3 5.2-6 8-1.6 6.1 1.4 14.6 2.1 16.4-.2.9-.3 1.8-.3 2.6m40.5-5-.1.1c-.6 1.5-1.1 3-1.3 4.6-.7 3.5-2.3 14.8-1.9 19.8.3 3.8 1.2 13.5 1.7 18.2l.1 1.2c.1.8-.3 1.6-1 1.9-2 1.1-7 1.3-18.7 1.5-9.3.2-13.6-.5-15.6-1.1-.7-.2-1.2-.9-1.1-1.6.2-3.9.9-14.7 1.3-20.5.3-6.2 0-12.4-1-18.5-.2-1.3-.7-2.6-1.4-3.7 0-.1-.1-.1-.1-.1-.8-2.1-3.3-10-1.9-15.4 1-3.9 6.8-8.5 8.8-9.9.6 1.1 1.3 2.1 2.2 2.9 2.6 2.4 6 3.7 9.6 3.5h.3c7.9-.1 11-4.4 11.9-6.1 1.9 1.2 7.8 5.3 9.6 8.6 1.7 3.6-1 13.3-1.4 14.6M55 40.3c-.1-.9-.2-2.6-.2-4.2-.1-2.3.1-4.3-.3-6.4-.1-.9-.5-1.8-1.2-2.5.5-1.8 3.2-11.4 1.1-15.4-1.1-2.1-3.6-4.3-5.9-6.2 1.7.7 3.2 1.2 4.4 1.6 1.9.6 3.7 1.3 5.5 2.2 3.5 1.9 4.1 7.8 4.9 14.7l.1.8c.8 6.8.4 10.2.5 12.8-2.8 1.5-5.8 2.3-8.9 2.6"></path><defs><path id="a" d="M31.8 6.6c0-.1 0-.2.1-.2h.2c.1 0 .1.1.1.1v.1c.4.2.5.6.3.8-.2.2-.3 1-.3 1l-.3.1-.3-.1s-.1-.7-.3-1c0-.2.1-.6.5-.8z"></path></defs><clipPath id="b"></clipPath><path clip-path="url(#b)" fill="#828282" d="m32.8 7.1-.5-.7h.5zm0 .5-.9-1.2.9 1.2zm0 0-.9-1.2.9 1.2zm0 0-1-1.2h.1l.9 1.2zm0 .1-1-1.3 1 1.2zm0 0-1-1.3 1 1.3zm0 0-1-1.3 1 1.3zm0 0-1-1.3 1 1.3zm0 0-1-1.3 1 1.3zm0 .1-1-1.4 1 1.3zm0 0-1.1-1.4h.1l1 1.4zm0 0-1.1-1.4 1.1 1.4zm0 0-1.1-1.4 1.1 1.4zm0 0-1.1-1.4 1.1 1.4zm0 .1-1.1-1.5 1.1 1.4zm0 0-1.1-1.5 1.1 1.5zm0 0-1.1-1.5 1.1 1.5z"></path><path clip-path="url(#b)" fill="#828282" d="m32.8 7.9-1.2-1.5h.1l1.1 1.5zm0 0-1.2-1.5 1.2 1.5zm0 0-1.2-1.5 1.2 1.5z"></path><path clip-path="url(#b)" fill="#828282" d="m32.8 8-1.2-1.6 1.2 1.5zm0 0-1.2-1.6L32.8 8zm0 0-1.2-1.6L32.8 8zm0 0-1.2-1.6L32.8 8z"></path><path clip-path="url(#b)" fill="#828282" d="m32.8 8-1.3-1.6h.1L32.8 8z"></path><path clip-path="url(#b)" fill="#828282" d="m32.8 8.1-1.3-1.7L32.8 8zm0 0-1.3-1.7 1.3 1.7zm0 0-1.3-1.7 1.3 1.7zm0 0-1.3-1.7 1.3 1.7zm0 0-1.3-1.7 1.3 1.7zm0 0-1.3-1.7 1.3 1.7zm0 0-1.3-1.7 1.3 1.7zm0 0-1.3-1.7 1.3 1.7zm0 0-1.3-1.7 1.3 1.7zm0 0-1.3-1.7 1.3 1.7z"></path><path clip-path="url(#b)" fill="#828282" d="m32.8 8.2-1.4-1.8h.1l1.3 1.7zm0 0-1.4-1.8 1.4 1.8zm0 0-1.4-1.8 1.4 1.8zm0 0-1.4-1.8 1.4 1.8zm0 0-1.4-1.8 1.4 1.8zm0 0-1.4-1.8 1.4 1.8zm0 0-1.4-1.8 1.4 1.8zm0 0-1.4-1.8 1.4 1.8zm0 0-1.4-1.8 1.4 1.8zm0 0-1.4-1.8 1.4 1.8zm0 .1-1.4-1.9 1.4 1.8zm0 0-1.4-1.9 1.4 1.9zm0 0-1.5-1.9h.1l1.4 1.9zm0 0-1.5-1.9 1.5 1.9zm0 0-1.5-1.9 1.5 1.9zm0 0-1.5-1.9 1.5 1.9zm0 0-1.5-1.9 1.5 1.9zm0 0-1.5-1.9 1.5 1.9zm0 0-1.5-1.8v-.1l1.5 1.9zm0 0-1.5-1.8 1.5 1.8zm0 .1-1.5-1.9 1.5 1.8zm0 0-1.5-1.9 1.5 1.9zm0 0-1.5-1.9 1.5 1.9zm0 0-1.5-1.9 1.5 1.9zm0 0-1.5-1.9 1.5 1.9zm0 0-1.5-1.9 1.5 1.9zm0 0-1.5-1.9 1.5 1.9zm0 0-1.5-1.9 1.5 1.9zm0 0-1.5-1.8v-.1l1.5 1.9zm0 .1-1.5-1.9 1.5 1.8zm0 0-1.5-1.9 1.5 1.9zm0 0-1.5-1.9 1.5 1.9zm0 0-1.5-1.9 1.5 1.9zm0 0-1.5-1.9 1.5 1.9zm0 0-1.5-1.9 1.5 1.9zm0 0-1.5-1.9 1.5 1.9zm0 0-1.5-1.9 1.5 1.9zm0 0-1.5-1.9 1.5 1.9z"></path><path clip-path="url(#b)" fill="#828282" d="m32.7 8.5-1.4-1.8v-.1l1.5 1.9zm0 0-1.4-1.8 1.4 1.8zm0 0-1.4-1.8 1.4 1.8zm0 0-1.4-1.8 1.4 1.8zm0 0-1.4-1.8 1.4 1.8zm0 0-1.4-1.8 1.4 1.8zm0 0-1.4-1.8 1.4 1.8zm0 0-1.4-1.8 1.4 1.8zm0 0-1.4-1.8 1.4 1.8zm0 0-1.4-1.8 1.4 1.8z"></path><path clip-path="url(#b)" fill="#828282" d="m32.7 8.5-1.4-1.7v-.1l1.4 1.8zm0 0-1.4-1.7 1.4 1.7zm0 0-1.4-1.7 1.4 1.7zm-.1 0-1.3-1.7 1.4 1.7zm0 0-1.3-1.7 1.3 1.7zm0 0-1.3-1.7 1.3 1.7zm0 0-1.3-1.7 1.3 1.7zm0 0-1.3-1.7 1.3 1.7zm0 0-1.3-1.7 1.3 1.7zm0 0-1.3-1.6v-.1l1.3 1.7zm0 0-1.3-1.6 1.3 1.6zm0 0-1.3-1.6 1.3 1.6zm0 0-1.3-1.6 1.3 1.6zm0 0-1.3-1.6 1.3 1.6zm0 0-1.3-1.6 1.3 1.6z"></path><path clip-path="url(#b)" fill="#828282" d="m32.5 8.5-1.2-1.6 1.3 1.6zm0 0-1.2-1.6 1.2 1.6zm0 0-1.2-1.6 1.2 1.6zm0 0-1.2-1.6 1.2 1.6z"></path><path clip-path="url(#b)" fill="#828282" d="M32.5 8.5 31.3 7v-.1l1.2 1.6zm0 0L31.3 7l1.2 1.5zm0 0L31.3 7l1.2 1.5zm0 0L31.3 7l1.2 1.5zm0 0L31.3 7l1.2 1.5zm0 0L31.3 7l1.2 1.5zm0 0L31.3 7l1.2 1.5zm0 0L31.3 7l1.2 1.5z"></path><path clip-path="url(#b)" fill="#828282" d="M32.4 8.5 31.3 7l1.2 1.5zm0 0L31.3 7l1.1 1.5zm0 0-1.1-1.4V7l1.1 1.5zm0 0-1.1-1.4 1.1 1.4zm0 0-1.1-1.4 1.1 1.4zm0 0-1.1-1.4 1.1 1.4zm0 0-1.1-1.4 1.1 1.4zm0 0-1.1-1.4 1.1 1.4zm0 0-1.1-1.4 1.1 1.4zm0 0-1.1-1.4 1.1 1.4zm0 0-1.1-1.4 1.1 1.4zm0 0-1.1-1.4 1.1 1.4zm-.1 0-1-1.3v-.1l1.1 1.4zm0 0-1-1.3 1 1.3zm0 0-1-1.3 1 1.3zm0 0-1-1.3 1 1.3zm0 0-1-1.3 1 1.3zm0 0-1-1.3 1 1.3z"></path><path clip-path="url(#b)" fill="#828282" d="m31.3 7.2 1 1.3h-1z"></path><path fill="#828282" d="m32.1 8.5-.3-.1s-.1-.7-.3-.9c-.1-.1-.1-.2-.1-.4s.2-.4.4-.5v-.1h.5v.1c.2.1.3.3.4.5 0 .1 0 .3-.1.4-.1.2-.3.9-.3.9l-.2.1zm-.3-.1.3.1.3-.1c0-.1.1-.8.3-1 .1-.1.1-.2 0-.3 0-.2-.2-.4-.4-.4v-.2h-.5v.2c-.2.1-.3.3-.4.5v.3c.2.1.3.8.4.9z"></path><defs><path id="c" d="M32.4 7.2h-.3v-.4h.2c.1.1.1.2.1.2v.2zm-.7 0h.3v-.4h-.2c-.1.1-.1.2-.1.2v.2z"></path></defs><clipPath id="d"></clipPath><path clip-path="url(#d)" fill="#828282" d="M31.7 7.2h.2-.2zm0-.1.3.1-.3-.1zm0-.2.3.1-.3-.1zm.3 0zm.1.3zm0-.1.3.1-.3-.1zm0-.2.3.1-.3-.1zm.3 0h-.1.1z"></path><path fill="#828282" d="M32.1 7.3v-.4h.2c.1.1.1.2.1.2v.1l-.3.1zm0-.4v.3h.3v-.1s0-.2-.1-.2h-.2zm-.4.4v-.1s0-.2.1-.2h.2v.4l-.3-.1zm.3-.4h-.2c-.1 0-.1.2-.1.2v.1h.3v-.3z"></path><defs><path id="e" d="M31.8 7.7c.1 0 .1 0 0 0 .1.1.1.4.1.4h.4v-.3h.3V8l-.1.5h-.8l-.1-.5v-.2l.2-.1z"></path></defs><clipPath id="f"></clipPath><path clip-path="url(#f)" fill="#828282" d="M32.6 7.7h-.1.1zm0 .7-.5-.7.5.6zm0 0-.5-.7.5.7zm0 0-.5-.7.5.7zm0 0-.5-.7.5.7zm0 0-.5-.7.5.7zm0 0-.5-.7.5.7zm0 0-.5-.7.5.7zm-.6 0-.4-.7.4.7zm0 0-.4-.7.4.7zm0 0-.4-.7.4.7zm0 0-.4-.7.4.7zm0 0-.4-.7.4.7zm0 0-.4-.7.4.7zm0 0-.4-.7.4.7zm0 0-.4-.6v-.1l.4.7zm0 0-.4-.6.4.6zm0 0-.4-.6.4.6zm0 0-.4-.6.4.6zm0 0-.4-.6.4.6zm-.1 0-.3-.6.4.6zm0 0-.3-.6.3.6zm0 0-.3-.6.3.6zm0 0-.3-.6.3.6zm0 0-.3-.6.3.6zm0 0-.3-.6.3.6z"></path><path clip-path="url(#f)" fill="#828282" d="m31.9 8.4-.3-.5v-.1l.3.6zm0 0-.3-.5.3.5zm0 0-.3-.5.3.5zm0 0-.3-.5.3.5zm0 0-.3-.5.3.5zm0 0-.3-.5.3.5zm0 0-.3-.5.3.5zm0 0-.3-.5.3.5z"></path><path clip-path="url(#f)" fill="#828282" d="m31.6 7.9.3.5h-.3z"></path><path fill="#828282" d="M32.1 8.4h-.4l-.1-.5v-.2h.3V8h.4v-.3h.3v.2l-.1.5h-.4zm-.4 0h.8l.1-.5v-.1h-.3v.3h-.4v-.3h-.3v.1l.1.5z"></path><defs><path id="g" d="M31.8 8.3h.6V8h-.6z"></path></defs><clipPath id="h"></clipPath><path clip-path="url(#h)" fill="#828282" d="M32.3 8.3h.1zm-.5 0h.6-.6zm0-.3h.6-.6zm0 0z"></path><path fill="#828282" d="M31.7 8.3V8h.7v.3h-.7zm.1-.3v.3h.6V8h-.6z"></path><defs><path id="i" d="M31.6 7.3h.4v.1h-.3v.3c.1.1.1.3.1.3v.2h.6V8s0-.2.1-.3v-.3h-.3v-.1h.4s.2 0 .1.3c0 .3-.1 1-.1 1h-1s-.1-.7-.1-1c0-.3.1-.3.1-.3z"></path></defs><clipPath id="j"></clipPath><path clip-path="url(#j)" fill="#828282" d="m31.5 8.4.4.2h-.4zm0 0 .4.2-.4-.2zm0 0 .4.2-.4-.2zm0 0 .4.2-.4-.2zm0 0 .4.2-.4-.2z"></path><path clip-path="url(#j)" fill="#828282" d="m31.5 8.4.5.2h-.1l-.4-.2zm0 0 .5.2-.5-.2zm0 0 .5.2-.5-.2zm0 0 .5.2-.5-.2zm0 0 .5.2-.5-.2zm0 0 .5.2-.5-.2z"></path><path clip-path="url(#j)" fill="#828282" d="m31.5 8.3.6.3H32l-.5-.2zm0 0 .6.3-.6-.3zm0 0 .6.3-.6-.3zm0 0 .6.3-.6-.3zm0 0 .6.3-.6-.3zm0 0 .6.3-.6-.3zm0 0 .6.3-.6-.3z"></path><path clip-path="url(#j)" fill="#828282" d="m31.5 8.3.7.3h-.1l-.6-.3zm0 0 .7.3-.7-.3zm0 0 .7.3-.7-.3zm0 0 .7.3-.7-.3zm0 0 .7.3-.7-.3zm0 0 .7.3-.7-.3z"></path><path clip-path="url(#j)" fill="#828282" d="m31.5 8.3.8.3h-.1l-.7-.3zm0-.1.8.4-.8-.3zm0 0 .8.4-.8-.4zm0 0 .8.4-.8-.4zm0 0 .8.4-.8-.4zm0 0 .8.4-.8-.4z"></path><path clip-path="url(#j)" fill="#828282" d="m31.5 8.2.9.4h-.1l-.8-.4zm0 0 .9.4-.9-.4zm0 0 .9.4-.9-.4zm0 0 .9.4-.9-.4zm0 0 .9.4-.9-.4zm0 0 .9.4-.9-.4zm0 0 .9.4-.9-.4z"></path><path clip-path="url(#j)" fill="#828282" d="m31.5 8.2 1 .4h-.1l-.9-.4zm0 0 1 .4-1-.4zm0 0 1 .4-1-.4z"></path><path clip-path="url(#j)" fill="#828282" d="m31.5 8.1 1 .5-1-.4zm0 0 1 .5-1-.5zm0 0 1 .5-1-.5z"></path><path clip-path="url(#j)" fill="#828282" d="m31.5 8.1 1.1.5h-.1l-1-.5zm0 0 1.1.5-1.1-.5zm0 0 1.1.5-1.1-.5zm0 0 1.1.5-1.1-.5zm0 0 1.1.5-1.1-.5zm0 0 1.1.5-1.1-.5z"></path><path clip-path="url(#j)" fill="#828282" d="m31.5 8.1 1.2.5h-.1l-1.1-.5zm0 0 1.2.5-1.2-.5zm0-.8 1.2.5-1.2-.5zm0 0 1.2.5-1.2-.5zm0 0 1.2.5-1.2-.5zm0 0 1.2.5-1.2-.5zm0 0 1.2.5-1.2-.5zm0 0 1.2.5-1.2-.5zm0 0 1.2.5-1.2-.5zm.1 0 1.1.5-1.2-.5z"></path><path clip-path="url(#j)" fill="#828282" d="m31.6 7.3 1.1.4v.1l-1.1-.5zm0 0 1.1.4-1.1-.4zm0 0 1.1.4-1.1-.4zm0 0 1.1.4-1.1-.4zm0 0 1.1.4-1.1-.4zm0 0 1.1.4-1.1-.4zm0 0 1.1.4-1.1-.4zm0 0 1.1.4-1.1-.4z"></path><path clip-path="url(#j)" fill="#828282" d="m31.7 7.3 1 .4-1.1-.4zm0 0 1 .4-1-.4zm0 0 1 .4-1-.4zm0 0 1 .4-1-.4zm0 0 1 .4-1-.4zm0 0 1 .4-1-.4zm0 0 1 .4-1-.4zm0 0 1 .4-1-.4z"></path><path clip-path="url(#j)" fill="#828282" d="m31.8 7.3.9.4-1-.4zm0 0 .9.4-.9-.4zm0 0 .9.4-.9-.4zm0 0 .9.4-.9-.4z"></path><path clip-path="url(#j)" fill="#828282" d="m31.8 7.3.9.3v.1l-.9-.4zm0 0 .9.3-.9-.3zm0 0 .9.3-.9-.3zm0 0 .9.3-.9-.3zm0 0 .9.3-.9-.3z"></path><path clip-path="url(#j)" fill="#828282" d="m31.9 7.3.8.3-.9-.3zm0 0 .8.3-.8-.3zm0 0 .8.3-.8-.3zm0 0 .8.3-.8-.3zm0 0 .8.3-.8-.3zm0 0 .8.3-.8-.3zm0 0 .8.3-.8-.3zm0 0 .8.3-.8-.3zm.1 0 .7.3-.8-.3zm0 0 .7.3-.7-.3zm0 0 .7.3-.7-.3zm0 0 .7.3-.7-.3zm0 0 .7.3-.7-.3zm0 0 .7.3-.7-.3zm0 0 .7.3-.7-.3z"></path><path clip-path="url(#j)" fill="#828282" d="m32 7.3.7.2v.1l-.7-.3zm0 0 .7.2-.7-.2z"></path><path clip-path="url(#j)" fill="#828282" d="m32.1 7.3.6.2-.7-.2zm0 0 .6.2-.6-.2zm0 0 .6.2-.6-.2zm0 0 .6.2-.6-.2zm0 0 .6.2-.6-.2zm0 0 .6.2-.6-.2zm0 0 .6.2-.6-.2zm0 0 .6.2-.6-.2z"></path><path clip-path="url(#j)" fill="#828282" d="m32.2 7.3.5.2-.6-.2zm0 0 .5.2-.5-.2zm0 0 .5.2-.5-.2zm0 0 .5.2-.5-.2zm0 0 .5.2-.5-.2zm0 0 .5.2-.5-.2zm0 0 .5.2-.5-.2zm0 0 .5.2-.5-.2zm0 0 .5.2-.5-.2z"></path><path clip-path="url(#j)" fill="#828282" d="m32.3 7.3.4.2-.5-.2zm0 0 .4.1v.1l-.4-.2zm0 0 .4.1-.4-.1zm0 0 .4.1-.4-.1zm0 0 .4.1-.4-.1zm0 0 .4.1-.4-.1zm0 0 .4.1-.4-.1zm0 0 .4.1-.4-.1z"></path><path clip-path="url(#j)" fill="#828282" d="m32.4 7.3.3.1-.4-.1zm0 0 .3.1-.3-.1zm0 0 .3.1-.3-.1zm0 0 .3.1-.3-.1zm0 0 .3.1-.3-.1zm0 0 .3.1-.3-.1zm0 0 .3.1-.3-.1zm.3.1-.3-.1h.3z"></path><path fill="#828282" d="M32.1 8.6h-.5s-.1-.7-.1-1c0-.1 0-.2.1-.3h.5v.2h-.3v.3c.1.1.1.3.1.3v.2h.6v-.2s0-.2.1-.3v-.3h-.3v-.2h.5s.1.1.1.3c0 .3-.1 1-.1 1h-.7zm-.5-.1h1c0-.1.1-.7.1-1v-.2h-.4v.1h.3v.3c-.1.1-.1.3-.1.3v.2h-.6V8s0-.2-.1-.3v-.3h.3v-.1h-.4s-.1.1 0 .2c-.2.4-.1 1-.1 1z"></path><defs><path id="k" d="M32.5 7.3s.1 0 .1.1h-.5v-.1h.4zm-.9 0h.4v.1h-.5c0-.1.1-.1.1-.1z"></path></defs><clipPath id="l"></clipPath><path transform="translate(-.023 .098)" clip-path="url(#l)" fill="#828282" d="M31.5 7.3h.5v.1h-.5z"></path><path transform="translate(-.023 .1)" clip-path="url(#l)" fill="#828282" d="M32.1 7.3h.5v.1h-.5z"></path><defs><path id="m" d="M32.4 7.3c0 .1 0 .1 0 0h-.1V7h.1v.3zm-.1.4h.1v-.3h-.1v.3zm-.6-.3s.1 0 0 0h.1v-.3h-.1v.3zm.1.1c0-.1 0-.1 0 0 0-.1-.1-.1-.1-.1v.3h.1v-.2z"></path></defs><clipPath id="n"></clipPath><path clip-path="url(#n)" fill="#828282" d="M31.7 7.4h.1-.1zm0 0z"></path><path fill="#828282" d="M31.7 7.7v-.3h.1v.3h-.1zm0-.3s0 .1 0 0v.3h.1v-.2c0-.1 0-.1-.1-.1.1 0 .1 0 0 0 .1 0 .1 0 0 0zm.7.3h-.2v-.3h.1v.3zm-.1 0h.1v-.3h-.1v.3zm-.6-.3c-.1-.1 0-.3 0-.3h.2v.3h-.2c.1 0 .1 0 0 0 .1 0 0 0 0 0zm0-.3v.2h.1v-.2h-.1zm.7.3s-.1 0 0 0c-.1 0-.1 0 0 0h-.1v-.3h.2c-.1 0-.1.2-.1.3zm-.1 0s.1 0 0 0h.1v-.2h-.1v.2c0-.1 0 0 0 0zm-.7 1 .5.1h.5v-.1.1c0 .1-.1 1.4-.1 1.4s-.1.3-.3.3H32c-.2 0-.3-.3-.3-.3s-.1-1.4-.1-1.5c-.1 0 0 0 0 0z"></path><path fill="#828282" d="M31.9 10.1c-.2 0-.3-.3-.3-.3s-.1-1.3-.1-1.4v-.1.1h.9v-.1.1c0 .1-.1 1.4-.1 1.4s-.1.3-.3.3h-.1zm-.3-1.7c0 .1.1 1.4.1 1.4s.1.2.2.2h.3c.2 0 .2-.2.2-.3 0 0 .1-1.3.1-1.4v.1h-.9zm.3-1.3v-.5h.2v.5s.1 0 .1.1v.5h-.4v-.5l.1-.1z"></path><path fill="#828282" d="M32.1 7.7h-.2v-.5c0-.1 0-.1.1-.1v-.5h.3v.5s.1 0 .1.1v.5h-.3zm-.2 0h.2V6.6h-.2v1.1z"></path><defs><path id="o" d="M32 7.1v-.5h.2v1h-.4v-.4c.1-.1.2-.1.2-.1z"></path></defs><clipPath id="p"></clipPath><path clip-path="url(#p)" fill="#828282" d="m31.9 7.4.2.2h-.2zm0-.1.3.3-.3-.3zm0-.4.3.3v.3l-.3-.3zm0-.3.3.3-.3-.3zm.3 0z"></path><path fill="#828282" d="M32.1 7.7H32v-1h.2v1h-.1zm-.1-.1h.2v-1H32v.6c-.1.1-.1.4 0 .4-.1 0-.1 0 0 0z"></path><defs><path id="q" d="M31.8 6.9v-.3c0-.2.1-.1.1-.1h.2s.1 0 .1.1v.3h-.1v-.4h-.2v.4c0 .1 0 .1-.1 0 0 .1 0 0 0 0z"></path></defs><clipPath id="r"></clipPath><path clip-path="url(#r)" fill="#828282" d="m31.8 6.9.2.1h-.2zm0-.2.5.3-.5-.3zm0-.3.5.3-.5-.3zm0 0 .5.2v.1l-.5-.3zm0 0 .5.2-.5-.2zm0 0 .5.2-.5-.2zm0 0 .5.2-.5-.2zm0 0 .5.2-.5-.2zm0 0 .5.2-.5-.2z"></path><path clip-path="url(#r)" fill="#828282" d="m31.9 6.4.4.2-.5-.2zm0 0 .4.2-.4-.2zm0 0 .4.2-.4-.2zm0 0 .4.2-.4-.2zm0 0 .4.2-.4-.2zm0 0 .4.2-.4-.2zm0 0 .4.2-.4-.2zm0 0 .4.2-.4-.2zm0 0 .4.2-.4-.2zm0 0 .4.2-.4-.2zm0 0 .4.2-.4-.2zm0 0 .4.2-.4-.2zm0 0 .4.2-.4-.2z"></path><path clip-path="url(#r)" fill="#828282" d="m32 6.4.3.2-.4-.2zm0 0 .3.2-.3-.2zm0 0 .3.2-.3-.2zm0 0 .3.2-.3-.2zm0 0 .3.2-.3-.2zm0 0 .3.2-.3-.2zm0 0 .3.2-.3-.2zm0 0 .3.2-.3-.2zm0 0 .3.2-.3-.2zm0 0 .3.2-.3-.2z"></path><path clip-path="url(#r)" fill="#828282" d="m32 6.4.3.1v.1l-.3-.2zm0 0 .3.1-.3-.1zm0 0 .3.1-.3-.1zm.1 0 .2.1-.3-.1zm0 0 .2.1-.2-.1zm0 0 .2.1-.2-.1zm0 0 .2.1-.2-.1zm0 0 .2.1-.2-.1zm0 0 .2.1-.2-.1zm0 0 .2.1-.2-.1zm0 0 .2.1-.2-.1zm0 0 .2.1-.2-.1zm0 0 .2.1-.2-.1zm0 0 .2.1-.2-.1zm0 0 .2.1-.2-.1z"></path><path clip-path="url(#r)" fill="#828282" d="m32.2 6.4.1.1-.2-.1zm0 0 .1.1-.1-.1zm0 0 .1.1-.1-.1zm0 0 .1.1-.1-.1zm0 0 .1.1-.1-.1zm0 0 .1.1-.1-.1zm0 0 .1.1-.1-.1zm0 0 .1.1-.1-.1zm0 0 .1.1-.1-.1zm0 0 .1.1-.1-.1zm0 0 .1.1-.1-.1zm0 0 .1.1-.1-.1zm0 0 .1.1-.1-.1z"></path><path clip-path="url(#r)" fill="#828282" d="M32.3 6.4v.1l-.1-.1zm0 0v.1-.1zm0 0zm0 0z"></path><path fill="#828282" d="M31.8 7c0-.1 0-.1 0 0v-.5h.5v.4h-.1v-.4h-.3l-.1.5c.1 0 .1 0 0 0zm.1-.6s0 .1 0 0l-.1.1v.3h.1v-.4l.3.1v.4h.1v-.4h-.1l-.3-.1z"></path><defs><path id="s" d="M32 7.1v-.5h.2v1h-.4v-.4c.1-.1.2-.1.2-.1z"></path></defs><clipPath id="t"></clipPath><g clip-path="url(#t)"><defs><path id="u" d="M32 6.9h.2v-.3h-.3z"></path></defs><clipPath id="v"></clipPath><path clip-path="url(#v)" fill="#828282" d="M32.2 6.9h-.3v-.3h.3z"></path><defs><path id="w" d="M31.9 7.1h.3v.3h-.3z"></path></defs><clipPath id="x"></clipPath><path transform="translate(-.022 .1)" clip-path="url(#x)" fill="#828282" d="M31.9 7.1h.3v.3h-.3z"></path></g><defs><path id="y" d="M32.4 6.8s.1 0 0 0c.1 0 0 0 0 0z"></path></defs><clipPath id="z"></clipPath><path clip-path="url(#z)" fill="#828282" d="M32.4 6.8h.1v.1h-.1zm0 0c.1 0 .1 0 0 0 .1 0 .1-.1 0 0 0-.1 0 0 0 0z"></path><path clip-path="url(#z)" fill="#828282" d="M32.4 6.8c.1 0 .1 0 0 0 .1 0 .1-.1 0 0 0-.1 0 0 0 0z"></path><path clip-path="url(#z)" fill="#828282" d="M32.4 6.8c.1 0 .1 0 0 0 .1 0 .1-.1 0 0 0-.1 0 0 0 0z"></path><path clip-path="url(#z)" fill="#828282" d="M32.4 6.8c.1 0 .1 0 0 0 .1 0 .1-.1 0 0zm0 0c.1 0 .1 0 0 0 .1 0 .1 0 0 0zm0 0c.1 0 .1 0 0 0 .1 0 .1 0 0 0zm0 0c.1 0 .1 0 0 0 .1 0 .1 0 0 0zm0 0c.1 0 .1 0 0 0 .1 0 .1 0 0 0zm0 0c.1 0 .1 0 0 0 .1 0 .1 0 0 0zm0 0c.1 0 .1 0 0 0 .1 0 .1 0 0 0zm0 0c.1 0 .1 0 0 0 .1 0 .1 0 0 0zm0 0c.1 0 .1 0 0 0 .1 0 .1 0 0 0zm0 0c.1 0 .1 0 0 0 .1 0 .1 0 0 0zm0 0c.1 0 .1 0 0 0 .1 0 .1 0 0 0zm0 0c.1 0 .1 0 0 0 .1 0 .1 0 0 0zm0 0c.1 0 .1 0 0 0 .1 0 .1 0 0 0zm0 0c.1 0 .1 0 0 0 .1 0 .1 0 0 0zm0 0c.1 0 .1 0 0 0 .1 0 .1 0 0 0zm0 0c.1 0 .1 0 0 0 .1 0 .1 0 0 0zm0 0c.1 0 .1 0 0 0 .1 0 .1 0 0 0zm0 0c.1 0 .1 0 0 0 .1 0 .1 0 0 0zm0 0c.1 0 .1 0 0 0 .1 0 .1 0 0 0zm0 0c.1 0 .1 0 0 0 .1 0 .1 0 0 0zm0 0c.1 0 .1 0 0 0 .1 0 .1 0 0 0zm0 0c.1 0 .1 0 0 0 .1 0 .1 0 0 0zm0 0c.1 0 .1 0 0 0 .1 0 .1 0 0 0zm0 0c.1 0 .1 0 0 0 .1 0 .1 0 0 0zm0 0c.1 0 .1 0 0 0 .1 0 .1 0 0 0zm0 0c.1 0 .1 0 0 0 .1 0 .1 0 0 0zm0 0c.1 0 .1 0 0 0 .1 0 .1 0 0 0zm0 0c.1 0 .1 0 0 0 .1 0 .1 0 0 0zm0 0c.1 0 .1 0 0 0 .1 0 .1 0 0 0zm0 0c.1 0 .1 0 0 0 .1 0 .1 0 0 0zm0 0c.1 0 .1 0 0 0 .1 0 .1 0 0 0zm0 0c.1 0 .1 0 0 0 .1 0 .1 0 0 0zm0 0c.1 0 .1 0 0 0 .1 0 .1 0 0 0zm0 0c.1 0 .1 0 0 0 .1 0 .1 0 0 0zm0 0c.1 0 .1 0 0 0 .1 0 .1 0 0 0zm0 0c.1 0 .1 0 0 0 .1 0 .1 0 0 0zm0 0c.1 0 .1 0 0 0 .1 0 .1 0 0 0zm0 0c.1 0 .1 0 0 0 .1 0 .1 0 0 0zm0 0c.1 0 .1 0 0 0 .1 0 .1 0 0 0zm0 0c.1 0 .1 0 0 0 .1 0 .1 0 0 0zm0 0c.1 0 .1 0 0 0 .1 0 .1 0 0 0zm0 0c.1 0 .1 0 0 0 .1 0 .1 0 0 0zm0 0c.1 0 .1 0 0 0 .1 0 .1 0 0 0zm0 0c.1 0 .1 0 0 0 .1 0 .1 0 0 0zm0 0c.1 0 .1 0 0 0 .1 0 .1 0 0 0zm0 0c.1 0 .1 0 0 0 .1 0 0 0 0 0zm0 0s.1 0 0 0c.1 0 0 0 0 0zm0 0s.1 0 0 0c.1 0 0 0 0 0zm0 0s.1 0 0 0c.1 0 0 0 0 0zm0 0s.1 0 0 0c.1 0 0 0 0 0zm0 0s.1 0 0 0c.1 0 0 0 0 0zm0 0s.1 0 0 0c.1 0 0 0 0 0zm0 0s.1 0 0 0c.1 0 0 0 0 0zm0 0s.1 0 0 0c.1 0 0 0 0 0zm0 0s.1 0 0 0c.1 0 0 0 0 0zm0 0s.1 0 0 0c.1 0 0 0 0 0zm0 0s.1 0 0 0c.1 0 0 0 0 0zm0 0s.1 0 0 0c.1 0 0 0 0 0zm0 0s.1 0 0 0c.1 0 0 0 0 0zm0 0s.1 0 0 0c.1 0 0 0 0 0zm0 0s.1 0 0 0c.1 0 0 0 0 0zm0 0s.1 0 0 0c.1 0 0 0 0 0zm0 0s.1 0 0 0c.1 0 0 0 0 0zm0 0s.1 0 0 0c.1 0 0 0 0 0zm0 0s.1 0 0 0c.1 0 0 0 0 0zm0 0s.1 0 0 0c.1 0 0 0 0 0zm0 0s.1 0 0 0c.1 0 0 0 0 0zm0 0s.1 0 0 0c.1 0 0 0 0 0zm0 0s.1 0 0 0c.1 0 0 0 0 0zm0 0s.1 0 0 0c.1 0 0 0 0 0zm0 0s.1 0 0 0c.1 0 0 0 0 0zm0 0s.1 0 0 0c.1 0 0 0 0 0zm0 0s.1 0 0 0c.1 0 0 0 0 0zm0 0s.1 0 0 0c.1 0 0 0 0 0zm0 0s.1 0 0 0c.1 0 0 0 0 0zm0 0s.1 0 0 0c.1 0 0 0 0 0zm0 0s.1 0 0 0c.1 0 0 0 0 0zm0 0s.1 0 0 0c.1 0 0 0 0 0zm0 0s.1 0 0 0c.1 0 0 0 0 0zm0 0s.1 0 0 0c.1 0 0 0 0 0zm0 0s.1 0 0 0c.1 0 0 0 0 0zm0 0s.1 0 0 0c.1 0 0 0 0 0zm0 0s.1 0 0 0c.1 0 0 0 0 0zm0 0s.1 0 0 0c.1 0 0 0 0 0zm0 0s.1 0 0 0c.1 0 0 0 0 0zm0 0s.1 0 0 0c.1 0 0 0 0 0zm0 0s.1 0 0 0c.1 0 0 0 0 0zm0 0s.1 0 0 0c.1 0 0 0 0 0zm0 0s.1 0 0 0c.1 0 0 0 0 0zm0 0s.1 0 0 0c.1 0 0 0 0 0zm0 0s.1 0 0 0c.1 0 0 0 0 0zm0 0s.1 0 0 0c.1 0 0 0 0 0zm0 0s.1 0 0 0c.1 0 0 0 0 0zm0 0s.1 0 0 0c.1 0 0 0 0 0zm0 0zm0 0zm0 0zm0 0zm0 0zm0 0zm0 0zm0 0zm0 0zm0 0zm0 0zm0 0zm0 0zm0 0zm0 0zm0 0zm0 0zm0 0zm0 0z"></path><path fill="#828282" d="M32.4 6.8c.1 0 .1 0 0 0 .1 0 .1 0 0 0zm0 0z"></path><defs><path id="A" d="M31.7 6.8z"></path></defs><clipPath id="B"></clipPath><path clip-path="url(#B)" fill="#828282" d="M31.7 6.8h.1v.1h-.1zm0 0s.1 0 0 0c.1 0 0 0 0 0zm0 0s.1 0 0 0c.1 0 0 0 0 0zm0 0s.1 0 0 0c.1 0 0 0 0 0zm0 0s.1 0 0 0c.1 0 0 0 0 0zm0 0s.1 0 0 0c.1 0 0 0 0 0zm0 0s.1 0 0 0c.1 0 0 0 0 0zm0 0s.1 0 0 0c.1 0 0 0 0 0zm0 0s.1 0 0 0c.1 0 0 0 0 0zm0 0s.1 0 0 0c.1 0 0 0 0 0zm0 0s.1 0 0 0c.1 0 0 0 0 0zm0 0s.1 0 0 0c.1 0 0 0 0 0zm0 0s.1 0 0 0c.1 0 0 0 0 0zm0 0s.1 0 0 0c.1 0 0 0 0 0zm0 0s.1 0 0 0c.1 0 0 0 0 0zm0 0s.1 0 0 0c.1 0 0 0 0 0zm0 0s.1 0 0 0c.1 0 0 0 0 0zm0 0s.1 0 0 0c.1 0 0 0 0 0zm0 0s.1 0 0 0c.1 0 0 0 0 0zm0 0s.1 0 0 0c.1 0 0 0 0 0zm0 0s.1 0 0 0c.1 0 0 0 0 0zm0 0s.1 0 0 0c.1 0 0 0 0 0zm0 0s.1 0 0 0c.1 0 0 0 0 0zm0 0s.1 0 0 0c.1 0 0 0 0 0zm0 0s.1 0 0 0c.1 0 0 0 0 0zm0 0s.1 0 0 0c.1 0 0 0 0 0zm0 0s.1 0 0 0c.1 0 0 0 0 0zm0 0s.1 0 0 0c.1 0 0 0 0 0zm0 0s.1 0 0 0c.1 0 0 0 0 0zm0 0s.1 0 0 0c.1 0 0 0 0 0zm0 0s.1 0 0 0c.1 0 0 0 0 0zm0 0s.1 0 0 0c.1 0 0 0 0 0zm0 0s.1 0 0 0c.1 0 0 0 0 0zm0 0s.1 0 0 0c.1 0 0 0 0 0zm0 0s.1 0 0 0c.1 0 0 0 0 0zm0 0s.1 0 0 0c.1 0 0 0 0 0zm0 0s.1 0 0 0c.1 0 0 0 0 0zm0 0s.1 0 0 0c.1 0 0 0 0 0zm0 0s.1 0 0 0c.1 0 0 0 0 0zm0 0s.1 0 0 0c.1 0 0 0 0 0zm0 0s.1 0 0 0c.1 0 0 0 0 0zm0 0s.1 0 0 0c.1 0 0 0 0 0zm0 0s.1 0 0 0c.1 0 0 0 0 0zm0 0s.1 0 0 0c.1 0 0 0 0 0zm0 0s.1 0 0 0c.1 0 0 0 0 0zm0 0s.1 0 0 0c.1 0 0 0 0 0zm0 0s.1 0 0 0c.1 0 0 0 0 0zm0 0s.1 0 0 0c.1 0 0 0 0 0zm0 0s.1 0 0 0c.1 0 0 0 0 0zm0 0s.1 0 0 0c.1 0 0 0 0 0zm0 0s.1 0 0 0c.1 0 0 0 0 0zm0 0s.1 0 0 0c.1 0 0 0 0 0zm0 0s.1 0 0 0c.1 0 0 0 0 0zm0 0s.1 0 0 0c.1 0 0 0 0 0zm0 0s.1 0 0 0c.1 0 0 0 0 0zm0 0s.1 0 0 0c.1 0 0 0 0 0zm0 0s.1 0 0 0c.1 0 0 0 0 0zm0 0s.1 0 0 0zm0 0zm0 0zm0 0zm0 0zm0 0zm0 0zm0 0zm0 0zm0 0zm0 0zm0 0zm0 0zm0 0zm0 0zm0 0zm0 0zm0 0zm0 0zm0 0zm0 0zm0 0zm0 0zm0 0zm0 0zm0 0zm0 0zm0 0zm0 0zm0 0zm0 0zm0 0zm0 0zm0 0zm0 0zm0 0zm0 0zm0 0zm0 0zm0 0zm0 0zm0 0zm0 0zm0 0zm0 0zm0 0zm0 0zm0 0zm0 0zm0 0zm0 0zm0 0zm0 0zm0 0zm0 0zm0 0zm0 0zm0 0zm0 0zm0 0z"></path><path fill="#828282" d="M31.7 6.8zm0 0zm-.1 1.602 1-.004v.2l-1 .004z"></path><path fill="#828282" d="M31.6 8.6v-.2h1v.2h-1zm0-.2v.2h.9v-.2h-.9z"></path><path fill="#828282" d="M31.9 6.5h.4V75h-.4zM31.3 75h-.2v-.3h.2v.3zm0-.6h-.2v-.7h.2v.7zm0-1h-.2v-.7h.2v.7zm0-1h-.2v-.7h.2v.7zm0-1.1h-.2v-.7h.2v.7zm0-1h-.2v-.7h.2v.7zm0-1h-.2v-.7h.2v.7zm0-1.1h-.2v-.7h.2v.7zm0-1h-.2v-.7h.2v.7zm0-1.1h-.2v-.7h.2v.7zm0-1h-.2v-.7h.2v.7zm0-1h-.2v-.7h.2v.7zm0-1.1h-.2v-.7h.2v.7zm0-1h-.2v-.7h.2v.7zm0-1h-.2v-.7h.2v.7zm0-1.1h-.2v-.7h.2v.7zm0-1h-.2v-.7h.2v.7zm0-1h-.2v-.7h.2v.7zm0-1.1h-.2v-.7h.2v.7zm0-1h-.2v-.7h.2v.7zm0-1.1h-.2V54h.2v.7zm0-1h-.2V53h.2v.7zm0-1h-.2V52h.2v.7zm0-1.1h-.2v-.7h.2v.7zm0-1h-.2v-.7h.2v.7zm0-1h-.2v-.7h.2v.7zm0-1.1h-.2v-.7h.2v.7zm0-1h-.2v-.7h.2v.7zm0-1.1h-.2v-.7h.2v.7zm0-1h-.2v-.7h.2v.7zm0-1h-.2v-.7h.2v.7zm0-1.1h-.2v-.7h.2v.7zm0-1h-.2v-.7h.2v.7zm0-1h-.2v-.7h.2v.7zm0-1.1h-.2v-.7h.2v.7zm0-1h-.2v-.7h.2v.7zm0-1h-.2v-.7h.2v.7zm0-1.1h-.2v-.7h.2v.7zm0-1h-.2v-.7h.2v.7zm0-1.1h-.2v-.7h.2v.7zm0-1h-.2v-.7h.2v.7zm0-1h-.2v-.7h.2v.7zm0-1.1h-.2v-.7h.2v.7zm0-1h-.2v-.7h.2v.7zm0-1h-.2v-.7h.2v.7zm0-1.1h-.2v-.7h.2v.7zm0-1h-.2v-.7h.2v.7zm0-1h-.2v-.7h.2v.7zm0-1.1h-.2V25h.2v.7zm0-1h-.2V24h.2v.7zm0-1.1h-.2V23h.2v.6zm0-1h-.2v-.7h.2v.7zm0-1h-.2v-.7h.2v.7zm0-1.1h-.2v-.7h.2v.7zm0-1h-.2v-.7h.2v.7zm0-1h-.2v-.7h.2v.7zm0-1.1h-.2v-.7h.2v.7zm0-1h-.2v-.7h.2v.7zm0-1h-.2v-.7h.2v.7zm0-1.1h-.2v-.7h.2v.7zm0-1h-.2v-.7h.2v.7zm0-1.1h-.2v-.7h.2v.7zm0-1h-.2v-.7h.2v.7zm0-1h-.2v-.7h.2v.7zm0-1.1h-.2v-.7h.2v.7zm0-1h-.2v-.7h.2v.7zm0-1h-.2v-.7h.2v.7zM33 75h-.2v-.2h.2v.2zm0-.5h-.2v-.7h.2v.7zm0-1.1h-.2v-.7h.2v.7zm0-1h-.2v-.7h.2v.7zm0-1.1h-.2v-.7h.2v.7zm0-1h-.2v-.7h.2v.7zm0-1h-.2v-.7h.2v.7zm0-1.1h-.2v-.7h.2v.7zm0-1h-.2v-.7h.2v.7zm0-1h-.2v-.7h.2v.7zm0-1.1h-.2v-.7h.2v.7zm0-1h-.2v-.7h.2v.7zm0-1h-.2v-.7h.2v.7zm0-1.1h-.2v-.7h.2v.7zm0-1h-.2v-.7h.2v.7zm0-1.1h-.2v-.7h.2v.7zm0-1h-.2v-.7h.2v.7zm0-1h-.2v-.7h.2v.7zm0-1.1h-.2v-.7h.2v.7zm0-1h-.2v-.7h.2v.7zm0-1h-.2v-.7h.2v.7zm0-1.1h-.2V53h.2v.7zm0-1h-.2V52h.2v.7zm0-1h-.2V51h.2v.7zm0-1.1h-.2v-.7h.2v.7zm0-1h-.2v-.7h.2v.7zm0-1.1h-.2v-.7h.2v.7zm0-1h-.2v-.7h.2v.7zm0-1h-.2v-.7h.2v.7zm0-1.1h-.2v-.7h.2v.7zm0-1h-.2v-.7h.2v.7zm0-1h-.2v-.7h.2v.7zm0-1.1h-.2v-.7h.2v.7zm0-1h-.2v-.7h.2v.7zm0-1h-.2v-.7h.2v.7zm0-1.1h-.2v-.7h.2v.7zm0-1h-.2v-.7h.2v.7zm0-1.1h-.2v-.7h.2v.7zm0-1h-.2v-.7h.2v.7zm0-1h-.2v-.7h.2v.7zm0-1.1h-.2v-.7h.2v.7zm0-1h-.2v-.7h.2v.7zm0-1h-.2v-.7h.2v.7zm0-1.1h-.2v-.7h.2v.7zm0-1h-.2v-.7h.2v.7zm0-1h-.2v-.7h.2v.7zm0-1.1h-.2v-.7h.2v.7zm0-1h-.2v-.7h.2v.7zm0-1.1h-.2V25h.2v.7zm0-1h-.2V24h.2v.7zm0-1h-.2V23h.2v.7zm0-1.1h-.2v-.7h.2v.7zm0-1h-.2v-.7h.2v.7zm0-1h-.2v-.7h.2v.7zm0-1.1h-.2v-.7h.2v.7zm0-1h-.2v-.7h.2v.7zm0-1h-.2v-.7h.2v.7zm0-1.1h-.2v-.7h.2v.7zm0-1h-.2v-.7h.2v.7zm0-1.1h-.2v-.7h.2v.7zm0-1h-.2v-.7h.2v.7zm0-1h-.2v-.7h.2v.7zm0-1.1h-.2v-.7h.2v.7zm0-1h-.2v-.7h.2v.7zm0-1h-.2v-.7h.2v.7zm0-1.1h-.2v-.7h.2v.7zm0-1h-.2v-.7h.2v.7z"></path></svg>