<?xml version="1.0" encoding="UTF-8"?>
<svg id="Calque_1" data-name="Calque 1" xmlns="http://www.w3.org/2000/svg" viewBox="0 0 63.76 84.82">
  <defs>
    <style>
      .cls-2 {
        fill: #CACBCD;
        stroke-width: 0px;
      }
    </style>
  </defs>
  <g id="Groupe_50" data-name="Groupe 50" class="cls-1">
    <path id="Tracé_94" data-name="Tracé 94" class="cls-2" d="m63.3,42.7c-.23-1.45-.42-2.7-.53-3.76-.47-4.46-2.54-18.69-3.91-23.57-1.39-4.98-2.47-6.18-5.02-7.26-2.22-.94-10.63-4.27-11.41-4.58-.99-.71-1.72-1.73-2.09-2.89,0-.02-.01-.04-.02-.05,0-.03-.02-.06-.04-.09-.02-.04-.04-.08-.07-.12-.02-.02-.04-.04-.06-.06-.02-.02-.03-.04-.05-.06-.1-.07-.21-.11-.33-.11h-.01c-.07,0-.14,0-.21.03C34.75,1.73,26.03.02,25.94,0h-.03s-.1,0-.15,0c-.03,0-.07,0-.1,0-.05.02-.09.04-.13.06-.03.01-.06.02-.08.04,0,0,0,0-.01.01s-.01,0-.01,0c-.03.03-.06.07-.09.11-.02.02-.04.05-.06.07-.04.07-.06.15-.07.23h0c-.09,1.06-1.53,2.34-2.08,2.75-.09.07-.15.16-.19.26-1.15.46-9.17,3.63-11.32,4.55-2.55,1.08-3.63,2.28-5.02,7.26-1.36,4.88-3.43,19.11-3.91,23.57-.11,1.07-.31,2.32-.53,3.76-1.2,6.51-1.57,13.15-1.09,19.76.91,10.45.92,16.43.92,16.49h0v.03l.21,5.02c.01.26.19.49.45.57.71.18,1.44.27,2.17.26.33,0,.66-.02.99-.06,1.62-.19,4.02-.74,4.12-.77.28-.06.48-.31.48-.6,0-.6.27-3.68.37-4.82,0-.02,0-.04,0-.06,0-.04,0-.08,0-.12,0-.01,0-.03-.01-.04,0-.01,0-.03-.01-.04s0-.03-.02-.05c-.89-6.34-1.16-12.75-.8-19.14.28-3.26.49-5.46.64-7.15.23-2.52.36-3.91.49-5.95.15-2.35,1.94-8.81,2.95-12.33.33,1.71.76,4.1,1.06,6.43.17,1.31.41,2.55.64,3.75.77,3.34,1.05,6.78.84,10.2-.42,6.18-2.3,16.16-2.32,16.26-.06.33.16.66.49.72.02,0,.05,0,.07,0,.11,0,11.35.78,17.9.78h0c6.54,0,17.88-.77,18-.78.34-.02.59-.32.57-.66,0-.02,0-.05,0-.07-.02-.1-1.91-10.08-2.32-16.26-.21-3.42.07-6.86.84-10.2.23-1.2.47-2.44.64-3.74.3-2.33.73-4.72,1.06-6.43,1.02,3.53,2.81,9.98,2.95,12.33.13,2.04.26,3.43.49,5.95.16,1.69.36,3.89.64,7.15.36,6.39.09,12.8-.8,19.14,0,.01,0,.03-.01.05s0,.02-.01.03-.01.03-.01.04c0,.04,0,.08,0,.12,0,.02,0,.04,0,.06.1,1.14.37,4.23.37,4.82,0,.29.2.54.48.6.1.02,2.5.58,4.12.77.33.04.66.06.99.06.73,0,1.46-.08,2.17-.26.25-.07.43-.3.44-.57l.21-5.02h0v-.03c0-.06.01-6.04.92-16.49.48-6.6.11-13.24-1.09-19.75M41.25,4.19c-1.91,1.97-4.54,3.08-7.29,3.07l.15-2.97c2.04-.05,3.99-.87,5.47-2.29.4.84.97,1.58,1.67,2.19m-3.29-2.4c-1.33.86-2.88,1.32-4.46,1.31-1.97.09-3.92-.44-5.57-1.53,3.32.53,6.69.6,10.03.21m-11.86-.04c1.88,1.64,4.28,2.55,6.78,2.59l-.15,2.92c-3.1-.11-6.06-1.32-8.34-3.42.69-.59,1.27-1.3,1.71-2.09M5.64,83.54c-.75.08-1.51.06-2.26-.08l-.16-3.86c2.08.17,4.17.1,6.23-.23-.09,1.02-.23,2.64-.28,3.53-.78.17-2.39.51-3.53.64m4.17-37.58c-.13,2.02-.25,3.4-.49,5.91-.16,1.69-.36,3.89-.64,7.15-.38,6.37-.12,12.77.76,19.09-2.07.37-4.17.46-6.26.26-.03-1.73-.16-7.35-.92-16.03-.47-6.51-.1-13.04,1.08-19.46.23-1.46.43-2.73.54-3.82.47-4.43,2.52-18.55,3.87-23.37.82-2.92,1.47-4.35,2.33-5.22,1.66,2.65,2.72,5.62,3.11,8.72.44,3.93.53,7.9.28,11.85-.31,1.02-3.47,11.59-3.68,14.92m7.94,8.21c.22-3.53-.07-7.07-.86-10.52-.24-1.24-.47-2.4-.63-3.67-.52-4.04-1.41-8.24-1.55-8.87.26-4.03.16-8.07-.29-12.08-.41-3.31-1.56-6.5-3.35-9.31.32-.18.66-.34,1-.48,2.21-.94,10.65-4.28,11.39-4.57,2.5,2.36,5.79,3.72,9.23,3.82.03,3.68.18,23.87-.08,29.64-.26,5.81-.51,28.48-.56,32.5-5.59-.04-14.07-.57-16.53-.73.44-2.38,1.86-10.41,2.22-15.72m31.42-14.19c-.16,1.27-.39,2.44-.63,3.67-.79,3.45-1.08,6.99-.86,10.52.36,5.31,1.78,13.35,2.22,15.72-2.47.16-11,.69-16.6.73.04-4.05.3-26.66.56-32.44.26-5.8.11-26.07.08-29.69,3.2.02,6.25-1.31,8.41-3.68,1.81.72,9.01,3.57,11.02,4.43.7.26,1.34.64,1.89,1.14-.76,2.03-4.42,12.3-4.53,20.7-.12.53-1.02,4.81-1.55,8.9m6.45,5.98c-.21-3.3-3.32-13.72-3.67-14.89.1-7.34,3.09-16.44,4.18-19.52.67,1.32,1.19,2.71,1.54,4.15,1.35,4.82,3.4,18.94,3.87,23.37.12,1.1.31,2.36.54,3.82,1.19,6.41,1.55,12.95,1.08,19.46-.75,8.67-.89,14.3-.92,16.03-2.09.19-4.19.11-6.26-.26.89-6.32,1.14-12.72.76-19.09-.28-3.26-.49-5.46-.64-7.15-.23-2.51-.36-3.89-.49-5.91m4.17,37.58c-1.14-.14-2.75-.47-3.53-.64-.05-.89-.19-2.5-.28-3.53,1.23.23,2.48.34,3.74.32,1,0,1.9-.04,2.49-.08l-.16,3.86c-.74.13-1.5.16-2.26.08"/>
  </g>
</svg>