<?xml version="1.0" encoding="UTF-8"?>
<svg id="Calque_1" data-name="Calque 1" xmlns="http://www.w3.org/2000/svg" viewBox="0 0 37.36 79.69">
  <defs>
    <style>
      .cls-2 {
        fill: #CACBCD;
        stroke-width: 0px;
      }
    </style>
  </defs>
  <g id="Groupe_48" data-name="Groupe 48" class="cls-1">
    <path id="Tracé_93" data-name="Tracé 93" class="cls-2" d="m37.32,57.99c-.31-4.45-.93-8.88-1.86-13.24-.92-4.8-1.71-8.94-1.38-12.77l.07-.81c.29-3.33.63-7.2.77-10.95.04-.1.05-.22,0-.33.16-4.57.02-8.93-.87-11.87-1.1-3.66-1.97-5.88-2.45-6.27-.05-.04-.11-.07-.17-.1-1.61-.73-3.3-1.29-5.04-1.66-.85.04-1.7.18-2.52.43-1.64.45-3.33.72-5.03.78-1.41-.04-2.82-.25-4.19-.61-1.11-.33-2.28-.47-3.44-.4-1.48.29-2.93.75-4.32,1.35-.15.06-.27.18-.33.33-1.43,4.39-2.21,8.96-2.32,13.57l-.12,4.4c-.16,5.61-.27,9.66-.19,11.51.1,2.18-1.18,10.35-2.49,17.48l-.21,1.16c-1.13,6.09-1.81,9.77-.62,16.33,1.24,6.82,2.39,11.45,2.4,11.5.05.17.17.31.33.37.29.13,7.02,3.15,12.41-.06.35-.12.39-.49.42-.75.2-2.25.53-4.48,1-6.69.65-2.66,1.14-5.35,1.47-8.07.04-.53.06-1.07.04-1.6h.28c-.21,1.58-.14,3.18.21,4.74.57,2.23,2.07,8.14,1.86,10.98,0,.01,0,.02,0,.03,0,.19.12.36.28.45l.04.04c1.72,1.56,3.95,2.42,6.27,2.42,2.16-.05,4.26-.64,6.14-1.71.3-.08.45-.26,1.02-1.98.3-.9.75-2.38,1.2-4.33,1.05-4.48,1.49-9.08,1.31-13.68m-4.58-49.71c.84,2.78.97,7.07.82,11.52l-2.19,1.45c.74-9.08-.63-16.2-2.25-19.31.55.21,1.09.42,1.53.61.89,1.83,1.59,3.75,2.09,5.72m-3.42,18.48c-.18,1.09-.4,2.1-.63,3.05-1.87-3.79-2.89-7.96-2.97-12.19.06-4.08,1.25-8.07,3.43-11.52,1.38,6.81,1.44,13.83.17,20.66M18.86,2.32c1.83-.06,3.65-.34,5.42-.83.67-.19,1.35-.32,2.04-.38.23.02.46.07.69.14.02.02.05.04.08.06.45.23,1.06,1.34,1.62,3.16-2.78,3.83-4.31,8.43-4.35,13.16.08,4.86,1.36,9.63,3.75,13.87.02.04.05.07.09.1-2.08,6.77-5.29,9.24-6.38,9.91-1.43.85-3.2.89-4.67.1-1.31-.73-4.2-3.07-6.18-10.03.02-.02.05-.05.06-.08,2.38-4.24,3.67-9.01,3.74-13.88-.05-4.7-1.55-9.26-4.29-13.07.57-1.88,1.18-3.01,1.65-3.24.01,0,.02-.01.03-.02.73.08,1.45.21,2.16.39,1.49.39,3.01.6,4.55.64m-8.82,3.89c2.14,3.43,3.31,7.38,3.37,11.42-.08,4.2-1.08,8.33-2.93,12.1-.21-.92-.41-1.9-.59-2.96-1.26-6.8-1.21-13.78.15-20.56m-4.42,9.27c.12-4.43.85-8.82,2.19-13.05.82-.34,1.66-.63,2.51-.87-1.73,2.87-3.27,10.3-2.47,19.9l-2.36-1.48v-.1l.13-4.4Zm27.36,61.61c-5.15,2.71-8.58,1.24-10.56-.52.12-3.05-1.29-8.6-1.9-11.01-.35-1.64-.38-3.33-.1-4.98.03-.17-.03-.33-.16-.45-.14-.13-.33-.2-.52-.19h-1.77c-.19,0-.37.06-.51.19-.12.11-.19.27-.17.43.06.67.06,1.35,0,2.03-.33,2.66-.81,5.3-1.44,7.9-.48,2.25-.82,4.53-1.02,6.83v.04c-4.1,2.33-9.3.51-10.53.02-.26-1.06-1.26-5.3-2.33-11.18-1.16-6.4-.49-10.01.62-16l.21-1.16c1.23-6.66,2.62-15.28,2.51-17.68-.07-1.65.01-5.15.15-9.97l2.53,1.58c.14,1.29.32,2.62.55,3.98,1.82,10.8,5.69,14.42,7.83,15.61,1.96,1.06,4.34,1.01,6.26-.13,1.82-1.12,6.25-4.86,8.04-15.49.24-1.41.42-2.79.56-4.13l2.27-1.51c-.16,3.46-.46,6.94-.71,9.81l-.07.81c-.34,3.96.5,8.36,1.39,13.02.93,4.32,1.54,8.71,1.84,13.12.25,6.48-.76,12.95-2.97,19.04"/>
  </g>
</svg>