<?xml version="1.0" encoding="UTF-8"?>
<svg id="Calque_1" data-name="Calque 1" xmlns="http://www.w3.org/2000/svg" viewBox="0 0 60.52 74.17">
  <defs>
    <style>
      .cls-2 {
        fill: #CACBCD;
        stroke-width: 0px;
      }
    </style>
  </defs>
  <g class="cls-1">
    <path class="cls-2" d="m57.48,14.18c-.23-1.58-.68-3.12-1.34-4.58-.02-.09-.06-.17-.11-.24-.23-.49-.43-.86-.56-1.08-.5-.92-3.16-2.69-4.14-3.24-.93-.52-3.08-1.39-4.8-2.08-.73-.3-1.37-.55-1.76-.72-.92-.42-1.81-.89-2.68-1.4-.02-.01-.04-.01-.06-.02-.02,0-.03-.02-.05-.03l-1.4-.55c-.09-.04-.19-.06-.29-.06-.07,0-6.55,0-10.41.16C26.1.49,20.22,0,20.16,0c-.02,0-.04,0-.06,0-.01,0-.03,0-.04,0-.11,0-.2.03-.29.08,0,0-.02,0-.02,0l-1.25.7s-.05.01-.07.03c-.87.51-1.76.98-2.68,1.4-.39.17-1.03.42-1.76.72-1.72.69-3.87,1.56-4.79,2.08-.97.55-3.63,2.32-4.14,3.25-.12.22-.32.59-.55,1.08-.06.07-.09.16-.11.24-.66,1.45-1.11,2.99-1.34,4.57C2.62,17.05.04,28.69.01,28.8c-.06.33.15.65.48.73,2.3.61,4.65.99,7.02,1.13,1.53.05,3.06.2,4.58.42.05,1.29.19,4.72.19,7.15-.16,4.1-.74,8.18-1.71,12.17-1.1,5.03-3.38,16.86-3.38,21.3,0,.38,0,.82,5.1,1.55,5.15.66,10.33.97,15.52.91h4.91,0c5.19.06,10.37-.25,15.52-.91,5.1-.73,5.1-1.16,5.1-1.55,0-4.43-2.28-16.27-3.38-21.3-.98-3.99-1.55-8.07-1.72-12.17,0-2.42.14-5.85.19-7.14,1.52-.22,3.05-.37,4.59-.42,2.37-.15,4.72-.53,7.02-1.13.33-.08.54-.4.48-.73-.03-.12-2.61-11.75-3.03-14.63ZM29.96,1.59c3.05-.13,7.78-.16,9.59-.16-.25,1.76-1.62,6.55-9.26,6.55S21.19,3.17,20.87,1.32c1.45.11,4.53.31,7.27.31h0c.63,0,1.24,0,1.81-.03ZM1.49,28.48c.53-2.41,2.54-11.56,2.91-14.15.14-.97.37-1.92.69-2.84.68,1.56,1.75,4.04,2.65,6.2,1.32,3.16,4.12,10.6,4.59,11.87l-.08.26c-.8-.11-2.37-.3-4.68-.41-2.05-.13-4.09-.44-6.09-.93Zm47.11,22.17c1.06,4.83,3.21,15.95,3.35,20.61-1.48.4-7.11,1.65-19.23,1.65h-4.91c-12.12,0-17.75-1.25-19.23-1.65.14-4.65,2.29-15.78,3.34-20.6,1-4.07,1.58-8.23,1.74-12.42,0-2.79-.18-6.88-.21-7.6l.28-.93c.04-.12.03-.25-.01-.37-.03-.09-3.24-8.63-4.68-12.09-1.24-2.96-2.79-6.52-3.23-7.5.2-.41.36-.71.47-.91,1.07-1.08,2.3-2,3.63-2.73.84-.48,3.02-1.36,4.62-2,.75-.3,1.4-.57,1.8-.74.85-.39,1.67-.82,2.48-1.28.02,0,.05-.01.07-.02l.67-.38c.47,2.28,2.46,7.56,10.74,7.56s10.22-5.35,10.6-7.53l.52.2c.9.53,1.83,1.02,2.78,1.45.4.17,1.05.44,1.8.74,1.6.64,3.78,1.53,4.63,2,1.33.74,2.56,1.66,3.63,2.74.11.19.27.5.47.91-.43.98-1.99,4.54-3.23,7.5-1.44,3.46-4.65,12.01-4.68,12.09-.04.12-.05.25-.01.37l.27.91c-.03.68-.21,4.81-.21,7.62.16,4.19.75,8.35,1.74,12.42Zm4.34-21.24c-2.32.11-3.88.29-4.68.41l-.08-.26h0c.47-1.27,3.28-8.71,4.59-11.87.9-2.16,1.97-4.64,2.65-6.2.32.92.55,1.88.69,2.84.37,2.58,2.38,11.73,2.91,14.14-2,.49-4.03.8-6.09.94Z"/>
  </g>
</svg>