<?xml version="1.0" encoding="UTF-8"?>
<svg id="Calque_1" data-name="Calque 1" xmlns="http://www.w3.org/2000/svg" viewBox="0 0 70.83 75.69">
  <defs>
    <style>
      .cls-2 {
        fill: #CACBCD;
        stroke-width: 0px;
      }
    </style>
  </defs>
  <g id="Groupe_52" data-name="Groupe 52" class="cls-1">
    <path id="Tracé_95" data-name="Tracé 95" class="cls-2" d="m66.58,31.49c-4.26-2.75-7.04-8.07-8.22-12.13-1.12-3.83-4.24-18.66-4.27-18.81-.07-.35-.39-.58-.74-.54-3.91.44-7.77,1.25-11.52,2.42-1.37.44-2.72.98-4.02,1.6h-.08c-1.85.03-3.69.19-5.51.47-4.74.8-7.31,1.94-7.87,3.47-.27.73.25,2.28,1.59,5.91.62,1.55,1.14,3.14,1.58,4.75.48,2.31,1.09,9.64,1.31,20.29.22,6.41-.22,12.82-1.31,19.14-.39,1.29-1.07,2.48-1.99,3.47l1.29-30.19c.01-.32-.01-.64-.07-.95.01-.06.01-.11.01-.17-.02-.1-.05-.19-.11-.28-.08-.28-.18-.56-.31-.82l-1.68-3.36,1.44-1.7c.31-.36.26-.91-.1-1.22-.04-.03-.07-.06-.12-.08l-.18-.11c.34-.23.48-.66.33-1.04l-2.46-6.66c-.22-.6-.69-1.08-1.29-1.31-1.77-.65-3.61-1.08-5.48-1.3l-.14-2.32c0-.06-.02-.13-.04-.19.36-.24.57-.65.57-1.08,0-1.24-2.02-1.5-3.7-1.5-3.65,0-4.12.86-4.15,1.5-.02.35.1.7.34.96.07.08.15.15.24.21,0,.03,0,.07,0,.1v2.36c-1.85.2-3.66.62-5.4,1.27-.6.23-1.07.71-1.29,1.31l-2.46,6.66c-.14.38,0,.81.33,1.04l-.18.11c-.41.24-.54.77-.3,1.18.02.04.05.08.08.12l1.45,1.7-1.68,3.36c-.13.26-.23.52-.3.8-.07.09-.11.19-.13.3,0,.08,0,.15.01.23-.05.29-.07.59-.06.89l1.51,35.27c.03.74.22,1.46.55,2.13l1.86,3.71c.36.72.91,1.32,1.6,1.73,1.59.95,4.5,1.49,7.99,1.49s6.14-.5,7.8-1.49c.43-.26.81-.6,1.12-.99,1.68.61,3.45.92,5.24.91.73.04,1.48.08,2.24.16.31.03.62.05.93.05,2.99-.09,5.79-1.49,7.66-3.83-.08.19-.13.39-.13.6-.02.73.41,1.5,1.45,2.58,1.42,1.42,3.38,2.15,5.38,2.02.99,0,2.02-.1,3.07-.2.77-.07,1.56-.15,2.36-.19,4.54-.24,8.18-3.56,10.25-9.34.88-2.68,1.6-5.41,2.13-8.18.75-3.47,1.46-6.74,2.56-8.35,1.72-2.56,3.25-5.26,4.55-8.06,1.33-2.8,1.09-6.86-3.55-9.86M42.25,3.72c3.47-1.07,7.02-1.84,10.62-2.28.1.45.24,1.12.41,1.95-3.8.52-7.56,1.28-11.27,2.28-2.18.66-4.19,1.79-5.88,3.32-.21-.43-.38-.79-.48-1.06v-.03c0-.11-.04-.21-.1-.3,0-.02,0-.04,0-.07.08-.4.8-1.85,6.7-3.82m-9.81,2.13c.98-.16,1.98-.28,2.97-.34-.59.44-1.01,1.06-1.2,1.76,0,.01,0,.03,0,.05-.87.07-1.63.16-2.28.25-2.13.3-4.18,1.07-5.98,2.24-.17-.44-.28-.91-.33-1.38.13-.36,1.01-1.61,6.82-2.59m-18.94,2.79c.69,0,1.38.07,2.05.22h-.03s-4.37.09-4.37.09c-.08,0-.17-.02-.25-.04.85-.21,1.73-.3,2.6-.27m-2.22,1.73l.09-.07,3.88-.07.07.09.11,1.9c-.56-.04-1.13-.06-1.73-.06-.86,0-1.67.03-2.42.09v-1.88Zm-6.78,5.07c.09-.23.27-.42.5-.51,2.79-.99,5.73-1.47,8.69-1.4,2.76,0,5.49.48,8.09,1.4.23.09.41.28.5.51l2.27,6.13-.71.15H2.96l-.71-.15,2.27-6.13Zm-.94,10.53c.12-.25.09-.54-.09-.75l-1.35-1.59.94-.55h20.67l.94.55-1.35,1.59c-.18.21-.21.5-.09.75l1.88,3.76s0,.02.01.03c-7.79.88-15.65.87-23.43-.01,0,0,0-.01,0-.02l1.88-3.76Zm17.02,47.04h0c-.99.59-3.03,1.3-7.1,1.3-4.74,0-6.78-.99-7.29-1.3-.46-.28-.83-.69-1.07-1.17l-1.86-3.71c-.25-.49-.38-1.03-.41-1.57L1.37,31.29v-.2c4.21.47,8.44.71,12.67.71,3.81.02,7.62-.22,11.4-.7,0,.07,0,.13,0,.19l-1.36,32.08c-.01.06-.01.12,0,.18l-.13,3c-.02.55-.16,1.08-.41,1.57l-1.86,3.72c-.24.49-.61.89-1.08,1.17m9.44-.11c-.79-.08-1.56-.12-2.3-.17-1.57.01-3.12-.23-4.61-.72l1.64-3.27c.33-.66.52-1.39.55-2.13l.12-2.89c2.06-2.26,3.16-3.98,3.42-5.41,1.1-6.41,1.55-12.92,1.33-19.42-.22-10.8-.83-18.1-1.33-20.55-.45-1.68-.99-3.34-1.64-4.95-.25-.67-.54-1.47-.81-2.23,1.71-1.19,3.67-1.96,5.73-2.24.66-.1,1.46-.19,2.37-.26.69,1.53,1.47,3.02,2.31,4.47.89,1.52,1.7,3.09,2.41,4.69.87,2.32,2.69,9.85,4.63,20.9.85,4.69,1.4,9.42,1.66,14.18-1.03,2-1.93,4.06-2.68,6.18-.89,2.47-1.93,4.88-3.12,7.22-2.55,4.69-5.9,6.98-9.68,6.59m10.88-5.94c1.22-2.39,2.29-4.85,3.19-7.38.51-1.32,1-2.59,1.49-3.73.01,1.03,0,2.03-.03,3-.08,2.24-2.65,5.8-4.19,7.92-.47.64-.87,1.2-1.12,1.6-.24.35-.52.67-.85.95.55-.76,1.05-1.55,1.5-2.37m27.97-26.2c-1.27,2.74-2.76,5.37-4.44,7.88-1.24,1.83-1.98,5.23-2.76,8.83-.53,2.71-1.22,5.39-2.08,8.01-1.9,5.31-5.03,8.22-9.04,8.43-.83.04-1.64.12-2.42.2-3.07.3-5.49.53-7.34-1.4-.94-.98-1.08-1.42-1.07-1.6,0-.19.23-.41.6-.75.42-.37.79-.79,1.1-1.26.23-.36.62-.9,1.07-1.53,1.74-2.4,4.36-6.02,4.45-8.68.11-6.84-.47-13.67-1.75-20.39-1.96-11.2-3.77-18.69-4.69-21.15-.74-1.67-1.57-3.3-2.5-4.88-.37-.66-.81-1.46-1.21-2.22,1.59-1.53,3.52-2.65,5.63-3.29,3.67-.98,7.39-1.73,11.15-2.24,1.01,4.72,2.69,12.34,3.46,15.01.61,2.09,3.04,9.18,8.79,12.9,4.91,3.18,3.58,7.02,3.06,8.13"/>
  </g>
</svg>